<svg width="30" height="30" viewBox="0 0 30 30" fill="none" xmlns="http://www.w3.org/2000/svg">
<ellipse cx="14.9289" cy="14.7541" rx="14.9289" ry="14.7541" fill="#FF9431" fill-opacity="0.2"/>
<path d="M10.3333 14.65H14.5V18.9H10.3333V14.65ZM20.3333 22.3H8.66667V12.95H20.3333V22.3ZM20.3333 8.7H19.5V7H17.8333V8.7H11.1667V7H9.5V8.7H8.66667C7.74167 8.7 7 9.465 7 10.4V22.3C7 22.7509 7.17559 23.1833 7.48816 23.5021C7.80072 23.8209 8.22464 24 8.66667 24H20.3333C20.7754 24 21.1993 23.8209 21.5118 23.5021C21.8244 23.1833 22 22.7509 22 22.3V10.4C22 9.94913 21.8244 9.51673 21.5118 9.19792C21.1993 8.87911 20.7754 8.7 20.3333 8.7Z" fill="#FF9431"/>
</svg>
