<svg width="1152" height="700" viewBox="0 0 1152 700" fill="none" xmlns="http://www.w3.org/2000/svg">
<path d="M1152 0H0V700H1152V0Z" fill="white"/>
<path fill-rule="evenodd" clip-rule="evenodd" d="M1075.48 547.503C1161.16 540.481 1231.27 608.285 1291.32 669.792C1350.45 730.347 1423.33 802.87 1405.63 885.63C1388.5 965.659 1287.24 986.473 1215.24 1025.38C1171.03 1049.27 1124.64 1053.62 1075.48 1064.04C1001.57 1079.71 916.425 1151.43 860.52 1100.59C805.197 1050.29 873.305 960.165 879.264 885.63C884.335 822.21 860.414 757.521 892.347 702.493C934.076 630.587 992.625 554.294 1075.48 547.503Z" fill="#A27DDE"/>
<path fill-rule="evenodd" clip-rule="evenodd" d="M1075.66 -105.898C1107.6 -108.079 1130.03 -74.7412 1153.33 -52.7821C1172.97 -34.2793 1190.68 -13.9975 1200.03 11.3131C1208.94 35.4274 1205.35 61.0172 1204.87 86.7214C1204.32 116.311 1211.02 147.275 1197.03 173.352C1181.68 201.977 1155.24 224.329 1124.89 235.858C1093.32 247.845 1058.25 247.343 1025.68 238.424C992.739 229.402 960.961 212.673 940.455 185.346C920.557 158.829 920.364 123.97 915.217 91.2144C909.996 57.998 891.489 20.4802 910.149 -7.48579C929.168 -35.9907 975.067 -25.1103 1004.52 -42.6202C1032.36 -59.1747 1043.35 -103.692 1075.66 -105.898Z" fill="#F84061"/>
<path fill-rule="evenodd" clip-rule="evenodd" d="M42.9547 560.5C102.987 556.135 170.079 557.001 215.358 596.659C259.676 635.476 251.894 704.121 270.682 759.959C289.755 816.645 335.422 866.883 326.16 925.975C316.343 988.605 273.641 1043.72 220.731 1078.64C169.101 1112.72 104.636 1117.64 42.9547 1112.9C-14.9521 1108.45 -66.7491 1083.51 -116.02 1052.77C-169.015 1019.7 -238.648 990.695 -251 929.465C-263.36 868.187 -200.025 820.346 -174.403 763.328C-152.577 714.759 -151.078 656.799 -112.148 620.471C-70.604 581.705 -13.7172 564.621 42.9547 560.5Z" fill="#F4C095"/>
<path fill-rule="evenodd" clip-rule="evenodd" d="M7.60446 -201.241C66.2857 -193.7 125.367 -246.047 179.486 -222.142C236.31 -197.043 277.88 -138.106 288.933 -76.9768C299.505 -18.5139 272.061 41.5776 235.662 88.5329C205.838 127.007 145.341 121.717 109.431 154.585C65.2471 195.027 62.2639 272.777 7.60446 297.275C-54.8502 325.266 -133.895 325.185 -192.558 289.932C-252.69 253.795 -300.697 183.79 -297.882 113.691C-295.151 45.6723 -195.904 19.7381 -179.06 -46.2186C-159.987 -120.904 -258.975 -221.616 -199.675 -270.864C-142.197 -318.599 -66.5014 -210.763 7.60446 -201.241Z" fill="#1D7874"/>
</svg>
