<svg width="320" height="227" viewBox="0 0 320 227" fill="none" xmlns="http://www.w3.org/2000/svg">
<path fill-rule="evenodd" clip-rule="evenodd" d="M35.6045 -292.241C94.2857 -284.7 153.367 -337.047 207.486 -313.142C264.31 -288.043 305.88 -229.106 316.933 -167.977C327.505 -109.514 300.061 -49.4224 263.662 -2.46713C233.838 36.0074 173.341 30.7169 137.431 63.585C93.2471 104.027 90.2639 181.777 35.6045 206.275C-26.8502 234.266 -105.895 234.185 -164.558 198.932C-224.69 162.795 -272.697 92.7896 -269.882 22.691C-267.151 -45.3277 -167.904 -71.2619 -151.06 -137.219C-131.987 -211.904 -230.975 -312.616 -171.675 -361.864C-114.197 -409.599 -38.5014 -301.763 35.6045 -292.241Z" fill="#1D7874"/>
</svg>
