<svg width="277" height="143" viewBox="0 0 277 143" fill="none" xmlns="http://www.w3.org/2000/svg">
<path fill-rule="evenodd" clip-rule="evenodd" d="M-7.46323 1.77521C52.5693 -2.58957 119.661 -1.7239 164.94 37.9344C209.258 76.7512 201.476 145.396 220.264 201.234C239.337 257.92 285.004 308.158 275.742 367.246C265.925 429.877 223.223 484.992 170.313 519.915C118.683 553.993 54.2178 558.913 -7.46323 554.173C-65.37 549.723 -117.167 524.783 -166.438 494.036C-219.433 460.966 -289.066 431.973 -301.418 370.738C-313.778 309.462 -250.443 261.621 -224.821 204.603C-202.995 156.034 -201.496 98.0741 -162.566 61.7463C-121.022 22.9799 -64.1351 5.89564 -7.46323 1.77521Z" fill="#F4C095"/>
</svg>
