<svg width="201" height="187" viewBox="0 0 201 187" fill="none" xmlns="http://www.w3.org/2000/svg">
<path fill-rule="evenodd" clip-rule="evenodd" d="M173.661 -163.898C205.596 -166.079 228.035 -132.741 251.334 -110.782C270.967 -92.2793 288.677 -71.9975 298.028 -46.6869C306.936 -22.5726 303.345 3.01715 302.87 28.7214C302.323 58.3107 309.018 89.2745 295.032 115.352C279.68 143.977 253.243 166.329 222.886 177.858C191.321 189.845 156.247 189.343 123.682 180.424C90.7388 171.402 58.9612 154.673 38.4549 127.346C18.5568 100.829 18.3645 65.9698 13.2166 33.2144C7.99621 -0.00198364 -10.5107 -37.5198 8.14909 -65.4858C27.1684 -93.9907 73.0666 -83.1103 102.515 -100.62C130.357 -117.175 141.348 -161.692 173.661 -163.898Z" fill="#F84061"/>
</svg>
